.
..............................Site Info...........................

 -   http://www.scenetime.com  *_*   

Scenetime .Always on time . friendly online private torrent community ..

     We care to share . Join us on  http://www.scenetime.com 

    Be the first to get new release at  http://www.scenetime.com

        Seed back for speed


...................................NFO:.................................................[IMG]http://i.imgur.com/qD9lu.gif[/IMG]

 
TITLE: 

American Balls Unrated DVDRiP AC3 XViD - INSPiRAL

IMDB: 
 
http://www.amazon.co.uk/American-Balls-DVD-Nicola-Rayburn/dp/B006K0KB0S


SOURCES:

VIDEO -  LEGEND VOBS THANKS
AUDIO -  LEGEND VOBS THANKS
SUBS  - None Add

STATS:

Video
ID                                       : 0
Format                                   : MPEG-4 Visual
Format profile                           : Advanced Simple@L5
Format settings, BVOP                    : 2
Format settings, QPel                    : No
Format settings, GMC                     : No warppoints
Format settings, Matrix                  : Default (MPEG)
Muxing mode                              : Packed bitstream
Codec ID                                 : XVID
Codec ID/Hint                            : XviD
Duration                                 : 1h 21mn
Bit rate                                 : 1 117 Kbps
Width                                    : 720 pixels
Height                                   : 400 pixels
Display aspect ratio                     : 16:9
Frame rate                               : 25.000 fps
Color space                              : YUV
Chroma subsampling                       : 4:2:0
Bit depth                                : 8 bits
Scan type                                : Progressive
Compression mode                         : Lossy
Bits/(Pixel*Frame)                       : 0.155
Stream size                              : 648 MiB (85%)
Writing library                          : XviD 64

Audio
ID                                       : 1
Format                                   : AC-3
Format/Info                              : Audio Coding 3
Format profile                           : Dolby Digital
Mode extension                           : CM (complete main)
Codec ID                                 : 2000
Duration                                 : 1h 21mn
Bit rate mode                            : Constant
Bit rate                                 : 192 Kbps
Channel(s)                               : 2 channels
Channel positions                        : Front: L R
Sampling rate                            : 48.0 KHz
Bit depth                                : 16 bits
Compression mode                         : Lossy
Stream size                              : 111 MiB (15%)
Alignment                                : Aligned on interleaves
Interleave, duration                     : 40 ms (1.00 video frame)
Interleave, preload duration             : 512 ms


NOTES:

Thanks for the vobs legend RG ....nice stuff :)
Simple rip of the vobs too xvid with only crop,resize,heavy noise and sharpen used.
Audio stripped AC3 track and remuxed too our rip.


SCREENS:

[IMG]http://i.imgur.com/LEEMR.png[/IMG]
[IMG]http://i.imgur.com/4W2nV.png[/IMG]
[IMG]http://i.imgur.com/BkScX.png[/IMG]
[IMG]http://i.imgur.com/7vMAI.png[/IMG]


GREETZ: 

Past,Present and Future

[IMG]http://i.imgur.com/qD9lu.gif[/IMG]